<svg width="24" height="24" viewBox="0 0 24 24" fill="none" xmlns="http://www.w3.org/2000/svg">
<path d="M3 3L21 21" stroke="black" stroke-width="2" stroke-linecap="round" stroke-linejoin="round"/>
<path d="M7 2C6.44772 2 6 2.44772 6 3C6 3.55228 6.44772 4 7 4V2ZM14 3L14.7071 2.29289C14.5196 2.10536 14.2652 2 14 2V3ZM19 8H20C20 7.73478 19.8946 7.48043 19.7071 7.29289L19 8ZM18 15C18 15.5523 18.4477 16 19 16C19.5523 16 20 15.5523 20 15H18ZM20 19C20 18.4477 19.5523 18 19 18C18.4477 18 18 18.4477 18 19H20ZM6 5C6 4.44772 5.55228 4 5 4C4.44772 4 4 4.44772 4 5H6ZM7 4H14V2H7V4ZM13.2929 3.70711L18.2929 8.70711L19.7071 7.29289L14.7071 2.29289L13.2929 3.70711ZM18 8V15H20V8H18ZM18 19C18 19.5523 17.5523 20 17 20V22C18.6569 22 20 20.6569 20 19H18ZM17 20H7V22H17V20ZM7 20C6.44772 20 6 19.5523 6 19H4C4 20.6569 5.34315 22 7 22V20ZM6 19V5H4V19H6Z" fill="black"/>
</svg>
